<svg width="32" height="32" viewBox="0 0 32 32" fill="none" xmlns="http://www.w3.org/2000/svg">
<path d="M12.625 23.905C10.4 23.905 8.22489 23.2452 6.37484 22.009C4.52479 20.7729 3.08285 19.0159 2.23136 16.9602C1.37987 14.9045 1.15709 12.6425 1.59117 10.4602C2.02525 8.27795 3.09671 6.27339 4.67005 4.70005C6.24339 3.12671 8.24795 2.05525 10.4302 1.62117C12.6125 1.18708 14.8745 1.40987 16.9302 2.26136C18.9859 3.11284 20.7429 4.55478 21.979 6.40483C23.2152 8.25489 23.875 10.43 23.875 12.655C23.875 15.6387 22.6897 18.5002 20.58 20.61C18.4702 22.7197 15.6087 23.905 12.625 23.905ZM12.625 3.655C10.845 3.655 9.10492 4.18284 7.62487 5.17177C6.14483 6.16071 4.99128 7.56631 4.31009 9.21085C3.6289 10.8554 3.45067 12.665 3.79794 14.4108C4.1452 16.1566 5.00237 17.7603 6.26104 19.019C7.51972 20.2776 9.12336 21.1348 10.8692 21.4821C12.615 21.8293 14.4246 21.6511 16.0692 20.9699C17.7137 20.2887 19.1193 19.1352 20.1082 17.6551C21.0972 16.1751 21.625 14.435 21.625 12.655C21.625 10.2681 20.6768 7.97887 18.989 6.29104C17.3011 4.60321 15.012 3.655 12.625 3.655V3.655Z" fill="black" stroke="black" stroke-width="2"/>
<path d="M29.5 30.655C29.3522 30.6557 29.2057 30.6269 29.0692 30.5702C28.9327 30.5135 28.8089 30.4302 28.705 30.325L19 20.605C18.8887 20.503 18.7991 20.3796 18.7365 20.2423C18.6739 20.1049 18.6396 19.9564 18.6356 19.8054C18.6316 19.6545 18.658 19.5044 18.7133 19.3639C18.7685 19.2234 18.8515 19.0955 18.9572 18.9878C19.063 18.88 19.1893 18.7946 19.3287 18.7367C19.4681 18.6789 19.6178 18.6496 19.7687 18.6507C19.9197 18.6519 20.0688 18.6834 20.2074 18.7434C20.3459 18.8034 20.4709 18.8907 20.575 19L30.295 28.72C30.5057 28.9309 30.624 29.2169 30.624 29.515C30.624 29.8131 30.5057 30.0991 30.295 30.31C30.1924 30.4179 30.0691 30.504 29.9325 30.5633C29.796 30.6226 29.6489 30.6537 29.5 30.655V30.655Z" fill="black" stroke="black" stroke-width="2"/>
</svg>
