<svg width="39" height="36" viewBox="0 0 39 36" fill="none" xmlns="http://www.w3.org/2000/svg">
<path d="M37 3C37.5523 3 38 2.55228 38 1.99999C38 1.44771 37.5523 0.999997 37 1L1.99999 1.00019C1.44771 1.00019 0.999997 1.44791 1 2.0002C1 2.55248 1.44772 3.00019 2.00001 3.00019L37 3ZM37 19.0001C37.5523 19.0001 38 18.5524 38 18.0001C38 17.4478 37.5523 17.0001 37 17.0001H2C1.44772 17.0001 1 17.4478 1 18.0001C1 18.5524 1.44772 19.0001 2 19.0001H37ZM37 35C37.5523 35 38 34.5523 38 34C38 33.4477 37.5523 33 37 33H2C1.44772 33 1 33.4477 1 34C1 34.5523 1.44772 35 2 35H37Z" fill="#D9D9D9" stroke="#D82421" stroke-width="2" stroke-linecap="round" stroke-linejoin="round"/>
</svg>
