<svg width="45" height="47" viewBox="0 0 45 47" fill="none" xmlns="http://www.w3.org/2000/svg">
<path d="M35.2187 14.6675V14.6667C35.2187 12.0605 34.4752 9.51148 33.0801 7.34167C31.6849 5.17167 29.6998 3.47738 27.3736 2.47606C25.0472 1.47464 22.4861 1.21229 20.015 1.72309C17.5441 2.23386 15.2772 3.49407 13.4998 5.34119C11.7225 7.1881 10.5143 9.53893 10.0249 12.0954C9.53563 14.6519 9.78661 17.3019 10.7469 19.7111C11.7072 22.1204 13.3347 24.1828 15.4264 25.6353C17.5184 27.0879 19.9801 27.8646 22.5 27.8646V27.3646L22.5009 27.8646C25.8784 27.8585 29.1119 26.4613 31.494 23.9857C33.8756 21.5107 35.2129 18.1597 35.2187 14.6675ZM17.7677 7.27367C19.1701 6.29989 20.8166 5.78138 22.4994 5.78125C24.7542 5.7869 26.9191 6.72008 28.5196 8.38331C30.1206 10.0471 31.0257 12.306 31.0312 14.667C31.0312 16.4284 30.5285 18.1488 29.5886 19.6105C28.6489 21.0721 27.3152 22.2083 25.7584 22.8784C24.2019 23.5484 22.4903 23.7234 20.8393 23.3821C19.1881 23.0408 17.6687 22.1978 16.4742 20.9565C15.2796 19.715 14.464 18.1309 14.1334 16.4037C13.8027 14.6764 13.9726 12.8861 14.6207 11.2601C15.2687 9.6343 16.3649 8.24775 17.7677 7.27367Z" fill="#D82421" stroke="#D82421"/>
<path d="M41.6182 45.5312V45.5314L4.96875 43.375L5.46875 43.3757C5.46875 43.3755 5.46875 43.3754 5.46875 43.3753C5.47429 39.2573 7.05106 35.3133 9.84763 32.4071C12.6435 29.5015 16.4298 27.8704 20.3752 27.8646H24.6248C28.5702 27.8704 32.3565 29.5015 35.1524 32.4071C37.949 35.3134 39.5258 39.2575 39.5312 43.3757L39.5313 43.3813C39.5384 43.9432 39.7562 44.4836 40.1438 44.8865C40.5321 45.29 41.0607 45.5236 41.6182 45.5312Z" fill="#D82421" stroke="#D82421"/>
</svg>
