<svg width="64" height="47" viewBox="0 0 64 47" fill="none" xmlns="http://www.w3.org/2000/svg">
<path d="M43.0909 26.805C44.9382 26.805 46.4865 26.0657 47.5685 24.6698C48.7385 23.1608 49.3543 20.8995 49.3543 18.1294C49.3543 10.1147 46.6053 6.61403 38.0371 3.7091C35.3232 2.80023 29.2181 0.925936 24.6306 0.00836182V44.0433L33.6826 46.883V9.77988C33.6826 7.48377 34.9845 6.06175 36.6427 6.60533C39.1235 7.28373 39.1235 10.0625 39.1235 11.1106V25.8701C40.531 26.4876 41.8637 26.805 43.0909 26.805Z" fill="black"/>
<path d="M62.743 35.9808C63.1345 35.4937 63.2576 34.9892 63.1037 34.4891C62.9145 33.876 62.1052 32.6931 58.8592 31.6755C54.8214 30.1622 49.2837 29.5273 44.7489 30.01C40.3724 30.4884 37.2011 31.5842 37.1659 31.5973L36.968 31.6625V36.4287L47.1944 32.8671C49.1561 32.1713 52.1911 32.0147 53.8317 32.5453C55.0105 32.928 55.2656 33.5411 55.27 33.989C55.2744 34.5239 54.9225 35.285 53.2027 35.8938L36.968 41.6167V46.161L58.7404 38.4334C58.7668 38.4247 61.6302 37.368 62.743 35.9808Z" fill="black"/>
<path d="M21.3007 27.5312L7.31363 32.4453C7.26524 32.4627 3.78166 33.6064 1.77157 35.0762C1.05902 35.5981 0.73793 36.2417 0.856689 36.8896C1.08101 38.0986 2.68205 39.2249 5.13199 39.9076C10.2562 41.5819 15.6311 42.0081 20.8257 41.1644L21.2963 41.0861V37.2419L17.0518 38.7639C15.0901 39.4597 12.0508 39.6163 10.4101 39.0857C9.23136 38.703 8.97625 38.0899 8.97185 37.642C8.96305 37.1071 9.31933 36.3461 11.0435 35.7329L21.3007 32.1017V27.5312Z" fill="black"/>
</svg>
