<svg width="115" height="59" viewBox="0 0 115 59" fill="none" xmlns="http://www.w3.org/2000/svg">
<mask id="mask0_134_992" style="mask-type:luminance" maskUnits="userSpaceOnUse" x="0" y="0" width="58" height="58">
<path d="M0 0H57.2568V57.3225H0V0Z" fill="white"/>
</mask>
<g mask="url(#mask0_134_992)">
<path d="M25.6803 0.0256348C17.8928 0.0256348 11.3501 2.79854 6.76082 8.04365C2.33767 13.0976 0 20.1018 0 28.2981V28.4485C0 36.6684 2.35968 43.7478 6.82687 48.9199C11.4902 54.3196 18.0929 57.1742 25.9225 57.1742H44.1014C45.2423 57.1742 46.1669 56.1818 46.1669 54.9576V27.9566C46.1669 26.7323 45.2423 25.74 44.1014 25.74H27.3315C26.1466 25.74 25.186 26.771 25.186 28.0425V33.5024C25.186 34.774 26.1466 35.8049 27.3315 35.8049H30.1835V37.8046C30.1835 39.0289 29.2589 40.0212 28.118 40.0212H25.5002C19.3438 40.0212 15.8113 35.8866 15.8113 28.6761V28.5258C15.8113 22.1917 18.7674 17.9518 23.7209 17.1786C24.2513 17.127 24.7877 17.0841 25.312 17.0497L25.3801 17.0475C25.4101 17.0475 25.4381 17.0454 25.4662 17.0454H25.5082L26.7691 17.0067H39.6243C46.1629 17.0067 52.0811 12.8485 54.695 6.41771L57.2929 0.0256348H25.6803Z" fill="#D82421"/>
</g>
<path d="M114.005 19.7154C110.881 7.36936 101.43 0 88.7233 0H57.2568L57.8773 1.52714C60.5452 8.08675 66.5775 12.3267 73.2482 12.3288H81.8163L81.8864 12.3267C82.2126 12.3009 83.4155 12.2236 85.2208 12.2236C86.956 12.2236 88.7253 12.2966 90.4705 12.4405L90.6426 12.4534C97.3274 13.0183 106.486 14.8934 112.146 20.6132L112.218 20.684C112.248 20.7163 112.278 20.7442 112.306 20.7764L115 23.6546L114.005 19.7154ZM114.866 33.945L114.86 34.0632C113.159 49.4463 103.037 59 88.4431 59H68.3688V29.877H69.3835C75.2617 29.877 80.0411 35.0082 80.0411 41.3165V46.4714H88.9314C93.3105 46.4714 96.9972 44.9293 99.597 42.0082C102.241 39.0376 103.638 34.7419 103.638 29.5891V29.4109C103.638 25.4223 102.821 21.9814 101.208 19.1827L99.7011 16.573L102.405 17.5804C105.759 18.8283 108.479 20.4907 110.491 22.5248C113.429 25.4953 114.902 29.3357 114.866 33.945Z" fill="#D82421"/>
</svg>
