<svg width="51" height="53" viewBox="0 0 51 53" fill="none" xmlns="http://www.w3.org/2000/svg">
<path d="M38.2187 17.6675V17.6667C38.2187 15.0605 37.4752 12.5115 36.0801 10.3417C34.6849 8.17167 32.6998 6.47738 30.3736 5.47606C28.0472 4.47464 25.4861 4.21229 23.015 4.72309C20.5441 5.23386 18.2772 6.49407 16.4998 8.34119C14.7225 10.1881 13.5143 12.5389 13.0249 15.0954C12.5356 17.6519 12.7866 20.3019 13.7469 22.7111C14.7072 25.1204 16.3347 27.1828 18.4264 28.6353C20.5184 30.0879 22.9801 30.8646 25.5 30.8646V30.3646L25.5009 30.8646C28.8784 30.8585 32.1119 29.4613 34.494 26.9857C36.8756 24.5107 38.2129 21.1597 38.2187 17.6675ZM20.7677 10.2737C22.1701 9.29989 23.8166 8.78138 25.4994 8.78125C27.7542 8.7869 29.9191 9.72008 31.5196 11.3833C33.1206 13.0471 34.0257 15.306 34.0312 17.667C34.0312 19.4284 33.5285 21.1488 32.5886 22.6105C31.6489 24.0721 30.3152 25.2083 28.7584 25.8784C27.2019 26.5484 25.4903 26.7234 23.8393 26.3821C22.1881 26.0408 20.6687 25.1978 19.4742 23.9565C18.2796 22.715 17.464 21.1309 17.1334 19.4037C16.8027 17.6764 16.9726 15.8861 17.6207 14.2601C18.2687 12.6343 19.3649 11.2478 20.7677 10.2737Z" fill="#D82421" stroke="#D82421"/>
<path d="M44.6182 48.5312V48.5314L7.96875 46.375L8.46875 46.3757C8.46875 46.3755 8.46875 46.3754 8.46875 46.3753C8.47429 42.2573 10.0511 38.3133 12.8476 35.4071C15.6435 32.5015 19.4298 30.8704 23.3752 30.8646H27.6248C31.5702 30.8704 35.3565 32.5015 38.1524 35.4071C40.949 38.3134 42.5258 42.2575 42.5312 46.3757L42.5313 46.3813C42.5384 46.9432 42.7562 47.4836 43.1438 47.8865C43.5321 48.29 44.0607 48.5236 44.6182 48.5312Z" fill="#D82421" stroke="#D82421"/>
</svg>
