<svg width="43" height="31" viewBox="0 0 43 31" fill="none" xmlns="http://www.w3.org/2000/svg">
<g filter="url(#filter0_d_2_3136)">
<path d="M6.34152 6.31566H27.36M27.36 6.31566C27.36 8.84976 29.7125 10.904 32.6146 10.904C35.5167 10.904 37.8692 8.84974 37.8692 6.31566C37.8692 3.78157 35.5167 1.72727 32.6146 1.72727C29.7125 1.72727 27.36 3.78157 27.36 6.31566ZM16.8508 18.5513H37.8692M16.8508 18.5513C16.8508 21.0855 14.4982 23.1397 11.5961 23.1397C8.6941 23.1397 6.34152 21.0855 6.34152 18.5513C6.34152 16.0172 8.6941 13.963 11.5961 13.963C14.4982 13.963 16.8508 16.0172 16.8508 18.5513Z" stroke="black" stroke-width="3" stroke-linecap="round" stroke-linejoin="round" shape-rendering="crispEdges"/>
</g>
<defs>
<filter id="filter0_d_2_3136" x="0.841522" y="0.227272" width="42.5277" height="32.4125" filterUnits="userSpaceOnUse" color-interpolation-filters="sRGB">
<feFlood flood-opacity="0" result="BackgroundImageFix"/>
<feColorMatrix in="SourceAlpha" type="matrix" values="0 0 0 0 0 0 0 0 0 0 0 0 0 0 0 0 0 0 127 0" result="hardAlpha"/>
<feOffset dy="4"/>
<feGaussianBlur stdDeviation="2"/>
<feComposite in2="hardAlpha" operator="out"/>
<feColorMatrix type="matrix" values="0 0 0 0 0 0 0 0 0 0 0 0 0 0 0 0 0 0 0.25 0"/>
<feBlend mode="normal" in2="BackgroundImageFix" result="effect1_dropShadow_2_3136"/>
<feBlend mode="normal" in="SourceGraphic" in2="effect1_dropShadow_2_3136" result="shape"/>
</filter>
</defs>
</svg>
