<svg width="60" height="45" viewBox="0 0 60 45" fill="none" xmlns="http://www.w3.org/2000/svg">
<path d="M42.4383 32.4383H30.5667C30.0031 32.4383 29.4626 32.2177 29.0641 31.8251C28.6656 31.4324 28.4417 30.8999 28.4417 30.3446C28.4417 29.7893 28.6656 29.2567 29.0641 28.8641C29.4626 28.4714 30.0031 28.2508 30.5667 28.2508H42.4383C43.0019 28.2508 43.5424 28.4714 43.9409 28.8641C44.3395 29.2567 44.5633 29.7893 44.5633 30.3446C44.5633 30.8999 44.3395 31.4324 43.9409 31.8251C43.5424 32.2177 43.0019 32.4383 42.4383 32.4383Z" fill="#D82421"/>
<path d="M50.4283 31.5171C50.1674 31.5112 49.9091 31.4641 49.6633 31.3775C49.3925 31.2793 49.1448 31.1278 48.9354 30.9321C48.7259 30.7365 48.5591 30.5009 48.4451 30.2397C48.3311 29.9785 48.2723 29.6971 48.2723 29.4128C48.2723 29.1284 48.331 28.8471 48.445 28.5858L55.1883 10.9146C55.265 10.6331 55.4004 10.3705 55.586 10.1436C55.7716 9.91664 56.0032 9.73038 56.2661 9.59671C56.5289 9.46304 56.8172 9.3849 57.1124 9.3673C57.4076 9.3497 57.7034 9.39302 57.9806 9.4945C58.2579 9.59597 58.5106 9.75336 58.7226 9.95659C58.9346 10.1598 59.1012 10.4044 59.2117 10.6747C59.3223 10.945 59.3743 11.2351 59.3646 11.5264C59.3548 11.8177 59.2834 12.1037 59.155 12.3663L52.4117 30.0654C52.2759 30.4809 52.0117 30.8442 51.6561 31.1044C51.3005 31.3647 50.8712 31.509 50.4283 31.5171Z" fill="#D82421"/>
<path d="M21.5 32.1033C21.0557 32.103 20.6227 31.9655 20.2619 31.7101C19.901 31.4547 19.6305 31.0943 19.4883 30.6796L10.7617 4.52167H2.82834C2.26475 4.52167 1.72425 4.30108 1.32573 3.90842C0.927218 3.51577 0.703335 2.98321 0.703335 2.42792C0.703335 1.87262 0.927218 1.34007 1.32573 0.947412C1.72425 0.554758 2.26475 0.334167 2.82834 0.334167H12.2917C12.7394 0.336442 13.1751 0.47803 13.5363 0.738723C13.8976 0.999417 14.166 1.36589 14.3033 1.78583L23.625 29.3396C23.7365 29.6079 23.7903 29.8962 23.7828 30.1861C23.7754 30.476 23.7069 30.7613 23.5817 31.0237C23.4565 31.2862 23.2773 31.5201 23.0556 31.7108C22.8338 31.9014 22.5742 32.0446 22.2933 32.1313C22.0298 32.1771 21.7595 32.1676 21.5 32.1033Z" fill="#D82421"/>
<path d="M25.8633 44.6658C24.0421 44.6658 22.2618 44.1337 20.7475 43.1368C19.2332 42.1398 18.0529 40.7228 17.3559 39.065C16.659 37.4071 16.4766 35.5829 16.8319 33.8229C17.1872 32.0629 18.0643 30.4463 19.3521 29.1774C20.6399 27.9085 22.2806 27.0444 24.0669 26.6943C25.8531 26.3443 27.7046 26.5239 29.3872 27.2106C31.0698 27.8973 32.508 29.0602 33.5198 30.5523C34.5316 32.0443 35.0717 33.7985 35.0717 35.5929C35.0642 37.9969 34.0916 40.3004 32.3664 42.0003C30.6411 43.7002 28.3032 44.6585 25.8633 44.6658ZM25.8633 30.7075C24.8827 30.7075 23.924 30.994 23.1086 31.5308C22.2932 32.0677 21.6577 32.8307 21.2824 33.7234C20.9071 34.616 20.809 35.5983 21.0003 36.546C21.1916 37.4937 21.6638 38.3642 22.3573 39.0474C23.0507 39.7307 23.9342 40.196 24.896 40.3845C25.8578 40.573 26.8548 40.4762 27.7608 40.1065C28.6668 39.7367 29.4412 39.1105 29.986 38.3071C30.5309 37.5037 30.8217 36.5592 30.8217 35.5929C30.8217 34.2972 30.2993 33.0546 29.3694 32.1384C28.4395 31.2222 27.1784 30.7075 25.8633 30.7075Z" fill="#D82421"/>
<path d="M47.1417 44.6658C45.3204 44.6658 43.5401 44.1337 42.0258 43.1368C40.5115 42.1398 39.3312 40.7228 38.6343 39.065C37.9373 37.4071 37.755 35.5829 38.1103 33.8229C38.4656 32.0629 39.3426 30.4463 40.6304 29.1774C41.9182 27.9085 43.559 27.0444 45.3452 26.6943C47.1315 26.3443 48.9829 26.5239 50.6655 27.2106C52.3481 27.8973 53.7863 29.0602 54.7981 30.5523C55.8099 32.0443 56.35 33.7985 56.35 35.5929C56.3425 37.9969 55.37 40.3004 53.6447 42.0003C51.9194 43.7002 49.5816 44.6585 47.1417 44.6658ZM47.1417 30.7075C46.161 30.7075 45.2024 30.994 44.387 31.5308C43.5716 32.0677 42.936 32.8307 42.5608 33.7234C42.1855 34.616 42.0873 35.5983 42.2786 36.546C42.4699 37.4937 42.9422 38.3642 43.6356 39.0474C44.329 39.7307 45.2125 40.196 46.1743 40.3845C47.1362 40.573 48.1331 40.4762 49.0391 40.1065C49.9452 39.7367 50.7195 39.1105 51.2644 38.3071C51.8092 37.5037 52.1 36.5592 52.1 35.5929C52.1 34.2972 51.5776 33.0546 50.6477 32.1384C49.7179 31.2222 48.4567 30.7075 47.1417 30.7075Z" fill="#D82421"/>
</svg>
